<?xml version="1.0" encoding="UTF-8" standalone="no"?>
<svg width="95px" height="106px" viewBox="0 0 95 106" version="1.1" xmlns="http://www.w3.org/2000/svg" xmlns:xlink="http://www.w3.org/1999/xlink">
    <!-- Generator: Sketch 40 (33762) - http://www.bohemiancoding.com/sketch -->
    <title>Group 4</title>
    <desc>Created with Sketch.</desc>
    <defs></defs>
    <g id="Page-1" stroke="none" stroke-width="1" fill="none" fill-rule="evenodd">
        <g id="Corsairs---Scored" transform="translate(-326.000000, -1049.000000)">
            <g id="Play" transform="translate(228.000000, 959.000000)">
                <g transform="translate(147.000000, 147.000000) rotate(25.000000) translate(-147.000000, -147.000000) translate(37.000000, 37.000000)" id="Group-4">
                    <g transform="translate(70.000000, 48.000000)">
                        <path d="M40,102 C62.09139,102 80,84.09139 80,62 C80,39.90861 62.09139,22 40,22 C17.90861,22 -4.26325641e-14,39.90861 -4.26325641e-14,62" id="Oval-2" stroke="#DCA300" stroke-width="18" stroke-linecap="round" transform="translate(40.000000, 62.000000) scale(-1, -1) translate(-40.000000, -62.000000) "></path>
                        <path d="M41.7195655,2.03735925 C38.5607367,-0.192412691 36,1.13089825 36,5.00529707 L36,38.9947029 C36,42.8636217 38.555514,44.1960993 41.7195655,41.9626407 L65.915565,24.8830317 C68.1712482,23.2907773 68.1718616,20.7096558 65.915565,19.1169683 L41.7195655,2.03735925 Z" id="Path-2" fill="#DCA300"></path>
                    </g>
                </g>
            </g>
        </g>
    </g>
</svg>