<?xml version="1.0" encoding="UTF-8" standalone="no"?>
<svg width="107px" height="86px" viewBox="0 0 107 86" version="1.1" xmlns="http://www.w3.org/2000/svg" xmlns:xlink="http://www.w3.org/1999/xlink">
    <!-- Generator: Sketch 40 (33762) - http://www.bohemiancoding.com/sketch -->
    <title>Group 3</title>
    <desc>Created with Sketch.</desc>
    <defs></defs>
    <g id="Page-1" stroke="none" stroke-width="1" fill="none" fill-rule="evenodd">
        <g id="Corsairs---Game" transform="translate(-322.000000, -1063.000000)" fill="#DCA300">
            <g id="Group-3" transform="translate(322.000000, 1063.000000)">
                <g id="Group-2">
                    <rect id="Rectangle-2" x="0" y="12" width="83" height="18" rx="9"></rect>
                    <path d="M65.7195655,1.08269953 C62.5607367,-1.14707241 60,0.176238525 60,4.05063735 L60,38.0400432 C60,41.9089619 62.555514,43.2414396 65.7195655,41.007981 L89.915565,23.928372 C92.1712482,22.3361175 92.1718616,19.754996 89.915565,18.1623086 L65.7195655,1.08269953 Z" id="Path-2"></path>
                </g>
                <g id="Group-2-Copy" transform="translate(61.000000, 64.500000) scale(-1, 1) translate(-61.000000, -64.500000) translate(15.000000, 43.000000)">
                    <rect id="Rectangle-2" x="0" y="12" width="83" height="18" rx="9"></rect>
                    <path d="M65.7195655,1.08269953 C62.5607367,-1.14707241 60,0.176238525 60,4.05063735 L60,38.0400432 C60,41.9089619 62.555514,43.2414396 65.7195655,41.007981 L89.915565,23.928372 C92.1712482,22.3361175 92.1718616,19.754996 89.915565,18.1623086 L65.7195655,1.08269953 Z" id="Path-2"></path>
                </g>
            </g>
        </g>
    </g>
</svg>