<?xml version="1.0" encoding="UTF-8" standalone="no"?>
<svg width="274px" height="274px" viewBox="0 0 274 274" version="1.1" xmlns="http://www.w3.org/2000/svg" xmlns:xlink="http://www.w3.org/1999/xlink">
    <!-- Generator: Sketch 40.1 (33804) - http://www.bohemiancoding.com/sketch -->
    <title>island</title>
    <desc>Created with Sketch.</desc>
    <defs>
        <radialGradient cx="50%" cy="50%" fx="50%" fy="50%" r="90.7941016%" id="radialGradient-1">
            <stop stop-color="#FFBE5D" offset="0%"/>
            <stop stop-color="#FFEFD7" offset="100%"/>
        </radialGradient>
        <radialGradient cx="50%" cy="50%" fx="50%" fy="50%" r="90.7941016%" id="radialGradient-2">
            <stop stop-color="#FAC77B" offset="0%"/>
            <stop stop-color="#EEC07B" offset="100%"/>
        </radialGradient>
        <path d="M136,228 C185.705627,228 226,187.705627 226,138 C226,88.2943725 185.705627,48 136,48 C86.2943725,48 46,88.2943725 46,138 C46,187.705627 86.2943725,228 136,228 Z" id="path-3"/>
    </defs>
    <g id="Page-1" stroke="none" stroke-width="1" fill="none" fill-rule="evenodd">
        <g id="Corsairs---Game" transform="translate(-239.000000, -365.000000)">
            <g id="island" transform="translate(239.000000, 365.000000)">
                <path d="M136,228 C185.705627,228 226,187.705627 226,138 C226,88.2943725 185.705627,48 136,48 C86.2943725,48 46,88.2943725 46,138 C46,187.705627 86.2943725,228 136,228 Z" id="Island-Copy-3" fill="#E0FDFF"/>
                <path d="M137,274 C212.663011,274 274,212.663011 274,137 C274,61.3369893 212.663011,0 137,0 C61.3369893,0 0,61.3369893 0,137 C0,212.663011 61.3369893,274 137,274 Z" id="Island-Copy-2" fill="url(#radialGradient-1)"/>
                <g id="Island-Copy">
                    <use fill="#EEC07B" xlink:href="#path-3"/>
                    <use fill="url(#radialGradient-2)" xlink:href="#path-3"/>
                </g>
                <g id="Palm1" transform="translate(182.000000, 184.000000)">
                    <path d="M51.2820646,51.2820646 C49.1494884,63.8226009 43,73 43,73 C43,73 36.8505116,63.8226009 34.7179354,51.2820646 C22.1773991,49.1494884 13,43 13,43 C13,43 22.1773991,36.8505116 34.7179354,34.7179354 C36.8505116,22.1773991 43,13 43,13 C43,13 49.1494884,22.1773991 51.2820646,34.7179354 C63.8226009,36.8505116 73,43 73,43 C73,43 63.8226009,49.1494884 51.2820646,51.2820646 Z" id="Combined-Shape-Copy" fill="#7CAA4E" transform="translate(43.000000, 43.000000) rotate(45.000000) translate(-43.000000, -43.000000) "/>
                    <path d="M51.2820646,51.2820646 C49.1494884,63.8226009 43,73 43,73 C43,73 36.8505116,63.8226009 34.7179354,51.2820646 C22.1773991,49.1494884 13,43 13,43 C13,43 22.1773991,36.8505116 34.7179354,34.7179354 C36.8505116,22.1773991 43,13 43,13 C43,13 49.1494884,22.1773991 51.2820646,34.7179354 C63.8226009,36.8505116 73,43 73,43 C73,43 63.8226009,49.1494884 51.2820646,51.2820646 Z" id="Combined-Shape" fill="#99CC66"/>
                </g>
                <g id="Palm2" transform="translate(4.000000, 6.000000)">
                    <path d="M51.2820646,51.2820646 C49.1494884,63.8226009 43,73 43,73 C43,73 36.8505116,63.8226009 34.7179354,51.2820646 C22.1773991,49.1494884 13,43 13,43 C13,43 22.1773991,36.8505116 34.7179354,34.7179354 C36.8505116,22.1773991 43,13 43,13 C43,13 49.1494884,22.1773991 51.2820646,34.7179354 C63.8226009,36.8505116 73,43 73,43 C73,43 63.8226009,49.1494884 51.2820646,51.2820646 Z" id="Combined-Shape-Copy" fill="#7CAA4E" transform="translate(43.000000, 43.000000) rotate(45.000000) translate(-43.000000, -43.000000) "/>
                    <path d="M51.2820646,51.2820646 C49.1494884,63.8226009 43,73 43,73 C43,73 36.8505116,63.8226009 34.7179354,51.2820646 C22.1773991,49.1494884 13,43 13,43 C13,43 22.1773991,36.8505116 34.7179354,34.7179354 C36.8505116,22.1773991 43,13 43,13 C43,13 49.1494884,22.1773991 51.2820646,34.7179354 C63.8226009,36.8505116 73,43 73,43 C73,43 63.8226009,49.1494884 51.2820646,51.2820646 Z" id="Combined-Shape" fill="#99CC66"/>
                </g>
                <circle id="Oval-9" fill="#BA7E3D" cx="36" cy="75" r="3"/>
                <circle id="Oval-9-Copy-3" fill="#BA7E3D" cx="72" cy="39" r="3"/>
                <circle id="Oval-9-Copy-2" fill="#BA7E3D" cx="37" cy="24" r="3"/>
                <circle id="Oval-9" fill="#BA7E3D" cx="214" cy="203" r="3"/>
                <circle id="Oval-9-Copy" fill="#BA7E3D" cx="250" cy="237" r="3"/>
            </g>
        </g>
    </g>
</svg>