<?xml version="1.0" encoding="UTF-8" standalone="no"?>
<svg width="382px" height="88px" viewBox="0 0 382 88" version="1.1" xmlns="http://www.w3.org/2000/svg" xmlns:xlink="http://www.w3.org/1999/xlink"><title>Logo</title><defs><circle id="path-1" cx="36" cy="36" r="36"></circle><mask id="mask-2" maskContentUnits="userSpaceOnUse" maskUnits="objectBoundingBox" x="0" y="0" width="72" height="72" fill="white"><use xlink:href="#path-1"></use></mask></defs><g id="Page-1" stroke="none" stroke-width="1" fill="none" fill-rule="evenodd"><g id="Corsairs---Play" transform="translate(-184.000000, -308.000000)"><g id="Group-2" transform="translate(184.000000, 308.000000)"><path d="M61.4628906,76.4160156 C57.8417788,77.7168034 54.1416205,78.6923796 50.3623047,79.3427734 C46.5829889,79.9931673 42.7246291,80.3183594 38.7871094,80.3183594 C34.955059,80.3183594 31.3515794,79.9052776 27.9765625,79.0791016 C24.6015456,78.2529256 21.5781384,77.0312581 18.90625,75.4140625 C13.2812219,72.0742021 8.88673457,67.5303022 5.72265625,61.7822266 C2.55857793,56.0341509 0.9765625,49.7148782 0.9765625,42.8242188 C0.9765625,37.3046599 1.93456073,32.1894767 3.85058594,27.4785156 C5.76661114,22.7675546 8.55271609,18.6718924 12.2089844,15.1914062 C15.6191577,11.8867022 19.6005632,9.39942241 24.1533203,7.72949219 C28.7060775,6.05956196 33.7948938,5.22460938 39.4199219,5.22460938 C43.0410337,5.22460938 46.6884582,5.55859041 50.3623047,6.2265625 C54.0361512,6.89453459 57.7363095,7.8964777 61.4628906,9.23242188 L61.4628906,27.2675781 L53.5527344,27.2675781 L51.390625,15.71875 L49.9140625,13.8730469 C48.4374926,13.3457005 46.9873118,12.9414077 45.5634766,12.6601562 C44.1396413,12.3789048 42.7421944,12.2382812 41.3710938,12.2382812 C33.8476186,12.2382812 27.8799049,14.9716524 23.4677734,20.4384766 C19.055642,25.9053008 16.8496094,33.3319843 16.8496094,42.71875 C16.8496094,52.3516107 19.1523207,59.8925509 23.7578125,65.3417969 C28.3633043,70.7910429 34.7089439,73.515625 42.7949219,73.515625 C43.6738325,73.515625 44.6669867,73.4277353 45.7744141,73.2519531 C46.8818415,73.076171 48.068353,72.8300797 49.3339844,72.5136719 L50.96875,70.8789062 L53.5527344,57.8535156 L61.4628906,57.8535156 L61.4628906,76.4160156 Z M109.441406,79 L109.441406,74.1484375 L115.189453,73.7265625 L116.71875,72.0917969 L116.71875,34.8085938 L108.914062,34.8085938 L108.914062,30.484375 L124.787109,25.421875 L130.007812,25.421875 L129.533203,36.4433594 C131.396494,34.4745995 133.382802,32.567392 135.492188,30.7216797 C137.601573,28.8759673 139.816395,27.1269614 142.136719,25.4746094 C142.734378,25.3691401 143.217772,25.2988283 143.586914,25.2636719 C143.956057,25.2285154 144.281249,25.2109375 144.5625,25.2109375 C145.722662,25.2109375 146.891596,25.3603501 148.069336,25.6591797 C149.247076,25.9580093 150.451166,26.423825 151.681641,27.0566406 L150.310547,41.9804688 L144.667969,41.9804688 C143.859371,40.6445246 142.883795,39.6601594 141.741211,39.0273438 C140.598627,38.3945281 139.236336,38.078125 137.654297,38.078125 C136.74023,38.078125 135.641608,38.3330053 134.358398,38.8427734 C133.075189,39.3525416 131.625008,40.0996045 130.007812,41.0839844 L130.007812,72.0917969 L131.589844,73.7265625 L139.289062,74.1484375 L139.289062,79 L109.441406,79 Z M194.449219,27.6894531 L194.449219,42.0859375 L187.962891,42.0859375 L186.908203,33.9648438 L185.589844,32.7519531 C184.394525,32.1894503 183.199225,31.7675795 182.003906,31.4863281 C180.808588,31.2050767 179.630865,31.0644531 178.470703,31.0644531 C175.869128,31.0644531 173.847663,31.6357365 172.40625,32.7783203 C170.964837,33.9209042 170.244141,35.5117086 170.244141,37.5507812 C170.244141,39.2382897 170.806635,40.6972595 171.931641,41.9277344 C173.056646,43.1582093 175.85154,44.8632704 180.316406,47.0429688 L180.527344,47.1484375 C190.898489,52.14065 196.083984,57.2206773 196.083984,62.3886719 C196.083984,67.9082307 194.124043,72.2587732 190.204102,75.4404297 C186.28416,78.6220862 180.896519,80.2128906 174.041016,80.2128906 C171.369127,80.2128906 168.547866,79.9843773 165.577148,79.5273438 C162.60643,79.0703102 159.486344,78.3847702 156.216797,77.4707031 L156.216797,61.4921875 L162.703125,61.4921875 L163.96875,70.7734375 L165.076172,71.9863281 C166.482429,72.7246131 167.941399,73.2871074 169.453125,73.6738281 C170.964851,74.0605488 172.529289,74.2539062 174.146484,74.2539062 C176.994155,74.2539062 179.235343,73.5595773 180.870117,72.1708984 C182.504891,70.7822196 183.322266,68.8750121 183.322266,66.4492188 C183.322266,63.3906097 180.210969,60.4550922 173.988281,57.6425781 C171.878896,56.6933546 170.244146,55.9199249 169.083984,55.3222656 C164.619118,53.1074108 161.481454,50.9189561 159.670898,48.7568359 C157.860343,46.5947158 156.955078,44.0371241 156.955078,41.0839844 C156.955078,36.267554 158.879864,32.3828273 162.729492,29.4296875 C166.579121,26.4765477 171.720671,25 178.154297,25 C180.896498,25 183.62108,25.2197244 186.328125,25.6591797 C189.03517,26.098635 191.742174,26.7753861 194.449219,27.6894531 L194.449219,27.6894531 Z M237.058594,68.4003906 L237.058594,50.7871094 C229.956996,52.3691485 225.105482,54.0917876 222.503906,55.9550781 C219.902331,57.8183687 218.601562,60.3495934 218.601562,63.5488281 C218.601562,66.0449344 219.322258,68.0224536 220.763672,69.4814453 C222.205085,70.940437 224.156238,71.6699219 226.617188,71.6699219 C227.988288,71.6699219 229.543937,71.3974637 231.28418,70.8525391 C233.024423,70.3076145 234.949208,69.4902398 237.058594,68.4003906 L237.058594,68.4003906 Z M237.058594,72.8300781 C233.402325,75.3261844 230.080093,77.1367131 227.091797,78.2617188 C224.103501,79.3867244 221.238295,79.9492188 218.496094,79.9492188 C214.347636,79.9492188 210.955091,78.6396615 208.318359,76.0205078 C205.681627,73.4013541 204.363281,70.0351768 204.363281,65.921875 C204.363281,60.8593497 206.296856,56.957045 210.164063,54.2148438 C214.031269,51.4726425 223.048757,48.5019691 237.216797,45.3027344 L237.216797,42.0859375 C237.216797,38.1835742 236.390633,35.3359465 234.738281,33.5429688 C233.085929,31.749991 230.484393,30.8535156 226.933594,30.8535156 C226.160152,30.8535156 225.351567,30.9062495 224.507813,31.0117187 C223.664058,31.117188 222.750005,31.2753896 221.765625,31.4863281 L221.765625,41.6113281 L211.798828,41.6113281 C210.076163,41.6113281 208.81934,41.294925 208.02832,40.6621094 C207.237301,40.0292937 206.841797,39.0273506 206.841797,37.65625 C206.841797,34.2812331 209.109352,31.3457156 213.644531,28.8496094 C218.17971,26.3535031 223.75192,25.1054687 230.361328,25.1054687 C237.779334,25.1054687 242.999985,26.5292826 246.023438,29.3769531 C249.04689,32.2246236 250.558594,37.1816053 250.558594,44.2480469 L250.558594,72.1972656 L251.982422,73.7265625 L257.730469,74.2539062 L257.730469,79 L238.482422,79 L237.058594,72.8300781 Z M277.453125,25.421875 L282.673828,25.421875 L282.673828,72.0917969 L284.255859,73.7265625 L290.320312,74.1484375 L290.320312,79 L262.001953,79 L262.001953,74.1484375 L267.855469,73.7265625 L269.384766,72.0917969 L269.384766,34.8085938 L262.265625,34.8085938 L262.265625,30.484375 L277.453125,25.421875 Z M276.292969,0.794921875 C278.648449,0.794921875 280.582024,1.54198472 282.09375,3.03613281 C283.605476,4.53028091 284.361328,6.41991045 284.361328,8.70507812 C284.361328,11.0957151 283.614265,13.0556564 282.120117,14.5849609 C280.625969,16.1142655 278.718762,16.8789062 276.398438,16.8789062 C274.148426,16.8789062 272.267586,16.1230544 270.755859,14.6113281 C269.244133,13.0996018 268.488281,11.2011833 268.488281,8.91601562 C268.488281,6.59569152 269.235344,4.66211711 270.729492,3.11523438 C272.22364,1.56835164 274.078114,0.794921875 276.292969,0.794921875 L276.292969,0.794921875 Z M294.855469,79 L294.855469,74.1484375 L300.603516,73.7265625 L302.132812,72.0917969 L302.132812,34.8085938 L294.328125,34.8085938 L294.328125,30.484375 L310.201172,25.421875 L315.421875,25.421875 L314.947266,36.4433594 C316.810556,34.4745995 318.796864,32.567392 320.90625,30.7216797 C323.015636,28.8759673 325.230457,27.1269614 327.550781,25.4746094 C328.14844,25.3691401 328.631834,25.2988283 329.000977,25.2636719 C329.370119,25.2285154 329.695311,25.2109375 329.976562,25.2109375 C331.136725,25.2109375 332.305658,25.3603501 333.483398,25.6591797 C334.661139,25.9580093 335.865228,26.423825 337.095703,27.0566406 L335.724609,41.9804688 L330.082031,41.9804688 C329.273433,40.6445246 328.297857,39.6601594 327.155273,39.0273438 C326.01269,38.3945281 324.650399,38.078125 323.068359,38.078125 C322.154292,38.078125 321.05567,38.3330053 319.772461,38.8427734 C318.489251,39.3525416 317.039071,40.0996045 315.421875,41.0839844 L315.421875,72.0917969 L317.003906,73.7265625 L324.703125,74.1484375 L324.703125,79 L294.855469,79 Z M379.863281,27.6894531 L379.863281,42.0859375 L373.376953,42.0859375 L372.322266,33.9648438 L371.003906,32.7519531 C369.808588,32.1894503 368.613287,31.7675795 367.417969,31.4863281 C366.22265,31.2050767 365.044928,31.0644531 363.884766,31.0644531 C361.28319,31.0644531 359.261726,31.6357365 357.820312,32.7783203 C356.378899,33.9209042 355.658203,35.5117086 355.658203,37.5507812 C355.658203,39.2382897 356.220697,40.6972595 357.345703,41.9277344 C358.470709,43.1582093 361.265603,44.8632704 365.730469,47.0429688 L365.941406,47.1484375 C376.312552,52.14065 381.498047,57.2206773 381.498047,62.3886719 C381.498047,67.9082307 379.538106,72.2587732 375.618164,75.4404297 C371.698223,78.6220862 366.310581,80.2128906 359.455078,80.2128906 C356.78319,80.2128906 353.961929,79.9843773 350.991211,79.5273438 C348.020493,79.0703102 344.900407,78.3847702 341.630859,77.4707031 L341.630859,61.4921875 L348.117188,61.4921875 L349.382812,70.7734375 L350.490234,71.9863281 C351.896491,72.7246131 353.355461,73.2871074 354.867188,73.6738281 C356.378914,74.0605488 357.943351,74.2539062 359.560547,74.2539062 C362.408217,74.2539062 364.649406,73.5595773 366.28418,72.1708984 C367.918953,70.7822196 368.736328,68.8750121 368.736328,66.4492188 C368.736328,63.3906097 365.625031,60.4550922 359.402344,57.6425781 C357.292958,56.6933546 355.658209,55.9199249 354.498047,55.3222656 C350.033181,53.1074108 346.895517,50.9189561 345.084961,48.7568359 C343.274405,46.5947158 342.369141,44.0371241 342.369141,41.0839844 C342.369141,36.267554 344.293926,32.3828273 348.143555,29.4296875 C351.993183,26.4765477 357.134733,25 363.568359,25 C366.310561,25 369.035143,25.2197244 371.742188,25.6591797 C374.449232,26.098635 377.156236,26.7753861 379.863281,27.6894531 L379.863281,27.6894531 Z" id="C-rsairs" fill="#4D4D4D"></path><g id="Coin" transform="translate(52.000000, 16.000000)"><use id="Oval-8" stroke="#FFC10E" mask="url(#mask-2)" stroke-width="20" fill="#FEE799" xlink:href="#path-1"></use><circle id="Oval-3" fill="#FFC10E" cx="36" cy="36" r="9"></circle></g></g></g></g></svg>
