<?xml version="1.0" encoding="UTF-8" standalone="no"?>
<svg width="60px" height="60px" viewBox="0 0 60 60" version="1.1" xmlns="http://www.w3.org/2000/svg" xmlns:xlink="http://www.w3.org/1999/xlink">
    <!-- Generator: Sketch 40 (33762) - http://www.bohemiancoding.com/sketch -->
    <title>Ship Copy</title>
    <desc>Created with Sketch.</desc>
    <defs>
        <path d="M19.5,61.5 C19.5,61.5 40.5,51.0685425 40.5,31.5 C40.5,11.9314575 19.5,1.5 19.5,1.5 C19.5,1.5 23.5547644,14.6204474 23.5547644,31.5812978 C23.5547644,48.5421481 19.5,61.5 19.5,61.5 Z" id="path-1"></path>
        <filter x="-50%" y="-50%" width="200%" height="200%" filterUnits="objectBoundingBox" id="filter-2">
            <feOffset dx="-5" dy="0" in="SourceAlpha" result="shadowOffsetInner1"></feOffset>
            <feComposite in="shadowOffsetInner1" in2="SourceAlpha" operator="arithmetic" k2="-1" k3="1" result="shadowInnerInner1"></feComposite>
            <feColorMatrix values="0 0 0 0 1   0 0 0 0 1   0 0 0 0 1  0 0 0 0.2 0" type="matrix" in="shadowInnerInner1"></feColorMatrix>
        </filter>
    </defs>
    <g id="Page-1" stroke="none" stroke-width="1" fill="none" fill-rule="evenodd">
        <g id="Corsairs---Game" transform="translate(-345.000000, -177.000000)">
            <g id="Ship-Copy" transform="translate(375.000000, 207.000000) scale(-1, 1) rotate(90.000000) translate(-375.000000, -207.000000) translate(345.000000, 177.000000)">
                <path d="M30,60 C30,60 51,46.5685425 51,30 C51,13.4314575 46.5685425,0 30,0 C13.4314575,0 9,13.4314575 9,30 C9,46.5685425 30,60 30,60 Z" id="Oval-5" fill="#A67D62"></path>
                <path d="M25.5,29.5 C30.4705627,29.5 34.5,25.4705627 34.5,20.5 C34.5,15.5294373 30.4705627,11.5 25.5,11.5" id="Oval-6" fill="#CBAD99" transform="translate(30.000000, 20.500000) scale(1, -1) rotate(90.000000) translate(-30.000000, -20.500000) "></path>
                <g id="Oval-7" transform="translate(30.000000, 31.500000) rotate(90.000000) translate(-30.000000, -31.500000) ">
                    <use fill="#000000" fill-rule="evenodd" xlink:href="#path-1"></use>
                    <use fill="black" fill-opacity="1" filter="url(#filter-2)" xlink:href="#path-1"></use>
                </g>
            </g>
        </g>
    </g>
</svg>