<?xml version="1.0" encoding="UTF-8" standalone="no"?>
<svg width="132px" height="132px" viewBox="0 0 132 132" version="1.1" xmlns="http://www.w3.org/2000/svg" xmlns:xlink="http://www.w3.org/1999/xlink">
    <!-- Generator: Sketch 40 (33762) - http://www.bohemiancoding.com/sketch -->
    <title>tower</title>
    <desc>Created with Sketch.</desc>
    <defs>
        <path d="M66,126 C99.137085,126 126,99.137085 126,66 C126,32.862915 99.137085,6 66,6 C32.862915,6 6,32.862915 6,66 C6,99.137085 32.862915,126 66,126 Z" id="path-1"/>
        <mask id="mask-2" maskContentUnits="userSpaceOnUse" maskUnits="objectBoundingBox" x="0" y="0" width="120" height="120" fill="white">
            <use xlink:href="#path-1"/>
        </mask>
        <circle id="path-3" cx="66" cy="66" r="66"/>
        <mask id="mask-4" maskContentUnits="userSpaceOnUse" maskUnits="objectBoundingBox" x="0" y="0" width="132" height="132" fill="white">
            <use xlink:href="#path-3"/>
        </mask>
    </defs>
    <g id="Page-1" stroke="none" stroke-width="1" fill="none" fill-rule="evenodd">
        <g id="Corsairs---Game" transform="translate(-309.000000, -437.000000)">
            <g id="tower" transform="translate(309.000000, 437.000000)">
                <path d="M66,126 C99.137085,126 126,99.137085 126,66 C126,32.862915 99.137085,6 66,6 C32.862915,6 6,32.862915 6,66 C6,99.137085 32.862915,126 66,126 Z" id="Fort2-Copy" fill="#B6B6B6"/>
                <use id="Fort2" stroke="#878787" mask="url(#mask-2)" stroke-width="36" opacity="0.699999988" xlink:href="#path-1"/>
                <use id="Fort" stroke="#4D4D4D" mask="url(#mask-4)" stroke-width="34" stroke-dasharray="35" xlink:href="#path-3"/>
                <circle id="Flag" fill="#4D4D4D" cx="66" cy="66" r="9"/>
            </g>
        </g>
    </g>
</svg>